<svg viewBox="0 0 16 16" fill="#000000" xmlns="http://www.w3.org/2000/svg" id="Nextjs-Line--Streamline-Remix" height="16" width="16">
  <desc>
    Nextjs Line Streamline Icon: https://streamlinehq.com
  </desc>
  <path d="M11.776266666666666 11.7662 6.840133333333332 5.333333333333333H5.333333333333333v5.333333333333333h1.3333333333333333v-3.3691999999999998l4.057933333333333 5.288399999999999C9.927133333333334 13.0606 8.9954 13.333333333333332 8 13.333333333333332c-2.94552 0 -5.333333333333333 -2.3878 -5.333333333333333 -5.333333333333333 0 -2.94552 2.387813333333333 -5.333333333333333 5.333333333333333 -5.333333333333333 2.9455333333333336 0 5.333333333333333 2.387813333333333 5.333333333333333 5.333333333333333 0 1.4701999999999997 -0.5948666666666667 2.8014666666666668 -1.5570666666666666 3.7662ZM8 14.666666666666666c3.6818666666666666 0 6.666666666666666 -2.9848 6.666666666666666 -6.666666666666666 0 -3.6818999999999997 -2.9848 -6.666666666666666 -6.666666666666666 -6.666666666666666C4.318099999999999 1.3333333333333333 1.3333333333333333 4.318099999999999 1.3333333333333333 8c0 3.6818666666666666 2.9847666666666663 6.666666666666666 6.666666666666666 6.666666666666666Zm1.3333333333333333 -6.666666666666666V5.333333333333333h1.3333333333333333v2.6666666666666665h-1.3333333333333333Z" stroke-width="0.6667"></path>
</svg>