<svg xmlns="http://www.w3.org/2000/svg" fill="none" viewBox="0 0 24 24" id="Nuxt--Streamline-Svg-Logos" height="24" width="24">
  <desc>
    Nuxt Streamline Icon: https://streamlinehq.com
  </desc>
  <path fill="#00dc82" d="M4.996125 14.7599h3.14495c0.0999 0 0.198025 -0.025475 0.284525 -0.073925 0.0865 -0.04845 0.158325 -0.11815 0.20825 -0.202075 0.049925 -0.0839 0.07615 -0.1791 0.07615 -0.276 0 -0.0969 -0.026375 -0.19205 -0.0764 -0.27595l-2.112025 -3.548425c-0.049925 -0.0839 -0.12175 -0.153575 -0.20825 -0.202025 -0.086475 -0.048425 -0.1846 -0.07395 -0.28445 -0.07395 -0.099875 0 -0.198 0.025525 -0.284475 0.07395 -0.0865 0.04845 -0.1583 0.118125 -0.208225 0.202025l-0.54005 0.907925 -1.055875 -1.775425c-0.04995 -0.083875 -0.1218 -0.15355 -0.2083 -0.201975 -0.086525 -0.04845 -0.18465 -0.07395 -0.284525 -0.07395 -0.099875 0 -0.198 0.0255 -0.284525 0.07395 -0.086525 0.048425 -0.15835 0.1181 -0.208325 0.201975L0.32639 13.93195c-0.05 0.0839 -0.07639 0.17905 -0.07639 0.27595 0 0.0969 0.0262175 0.1921 0.0761425 0.276 0.0499225 0.083925 0.12175 0.153625 0.2082525 0.202075 0.0865075 0.04845 0.18464 0.073925 0.28453 0.073925h1.974125c0.782175 0 1.359 -0.33325 1.755925 -0.983425l0.9636 -1.618725 0.516125 -0.8663 1.54905 2.602175h-2.065175l-0.51645 0.866275Zm-2.23525 -0.867175 -1.3776925 -0.0003 2.0651425 -3.46935 1.03045 1.734675 -0.689925 1.159425c-0.263575 0.42185 -0.563025 0.57555 -1.027975 0.57555Z" stroke-width="0.25"></path>
  <path fill="#000000" d="M10.120125 14.708025h0.9234v-2.06605c0 -0.5912 -0.061575 -1.182425 -0.061575 -1.182425l0.054425 0.121225c0.085875 0.187625 0.264875 0.564425 0.474975 0.924775l1.261975 2.202475h0.9911V10.16015h-0.92955l0.0001 2.105c0.002575 0.57825 0.061475 1.149975 0.061475 1.149975l-0.046525 -0.10535c-0.082175 -0.18295 -0.26455 -0.57555 -0.476725 -0.94715l-1.26815 -2.202475h-0.984925v4.547875Zm6.57285 -3.274475v1.79315c0 0.415825 -0.264725 0.727675 -0.640225 0.727675 -0.350875 0 -0.597125 -0.285875 -0.597125 -0.6822v-1.838625h-0.855675v2.040025c0 0.74715 0.45555 1.286425 1.15115 1.286425 0.424775 0 0.7695 -0.194925 0.941875 -0.506775v0.4548h0.861825V11.43355h-0.861825Zm3.368 1.572275 1.040475 -1.572275H20.1595l-0.566275 0.8641 -0.56645 -0.8641h-0.935675l1.04045 1.565775 -1.12045 1.7087h0.917325l0.670875 -1.007025 0.6648 1.007025h0.911175l-1.1143 -1.7022Zm2.002425 -1.572275h-0.5972v0.75365h0.5972v1.331875c0 0.760125 0.461675 1.18895 1.175825 1.18895h0.51085v-0.76015h-0.393925c-0.27695 0 -0.437175 -0.14945 -0.437175 -0.467775v-1.2929h0.8311v-0.75365h-0.8311V10.4655h-0.855575v0.96805Z" stroke-width="0.25"></path>
</svg>