<svg xmlns="http://www.w3.org/2000/svg" fill="none" viewBox="0 0 24 24" id="Php-Alt--Streamline-Svg-Logos" height="24" width="24">
  <desc>
    Php Alt Streamline Icon: https://streamlinehq.com
  </desc>
  <path fill="#067cff" d="M5.594775 8.5799c1.022925 0.008575 1.764175 0.3035 2.223725 0.884275 0.459575 0.5808 0.611225 1.37405 0.45515 2.3798 -0.0606 0.459575 -0.19505 0.9103 -0.403125 1.35245 -0.199475 0.44215 -0.47675 0.840875 -0.832275 1.1964 -0.43355 0.450725 -0.8973 0.736825 -1.39145 0.858275 -0.494175 0.121475 -1.00575 0.182075 -1.534525 0.182075h-1.5605L2.0576 17.904H0.25l1.8596175 -9.3241H5.594775Zm15.416975 0c1.022925 0.008575 1.764175 0.3035 2.22375 0.884275 0.45955 0.5808 0.6112 1.37405 0.45515 2.3798 -0.0606 0.459575 -0.195075 0.9103 -0.40315 1.35245 -0.199475 0.44215 -0.476725 0.840875 -0.832275 1.1964 -0.43355 0.450725 -0.8973 0.736825 -1.39145 0.858275 -0.494175 0.121475 -1.00575 0.182075 -1.5345 0.182075H17.96875l-0.494175 2.470825h-1.8076l1.859625 -9.3241H21.01175Zm-8.8844 -2.483825 -0.507175 2.483825h1.61255c0.8843 0.017425 1.5431 0.199475 1.97665 0.546175 0.44215 0.3467 0.5722 1.00575 0.390125 1.97665l-0.871275 4.33045h-1.8206l0.832275 -4.135375c0.0866 -0.433575 0.0606 -0.74125 -0.078025 -0.9233 -0.13865 -0.182075 -0.43775 -0.2731 -0.8973 -0.2731l-1.443475 -0.013 -1.066375 5.344775h-1.794575l1.8726 -9.3371h1.7946ZM4.1903 10.062375c-0.104025 0.0086 -0.20365 0.013025 -0.2991 0.013025l-0.2627 -0.000025 -0.777625 3.8883c0.052 0.0086 0.104025 0.013 0.15605 0.013h0.18205c0.832275 0.0086 1.525925 -0.0736 2.0807 -0.247075 0.55475 -0.18205 0.927725 -0.81485 1.11835 -1.898625 0.156075 -0.9103 0 -1.4349 -0.46815 -1.573525 -0.45955 -0.138625 -1.035925 -0.20365 -1.729575 -0.195075Zm15.417 0c-0.10405 0.0086 -0.203675 0.013025 -0.2991 0.013025l-0.26275 -0.000025 -0.7776 3.8883c0.052025 0.0086 0.104025 0.013 0.15605 0.013h0.18205c0.832275 0.0086 1.525925 -0.0736 2.0807 -0.247075 0.554775 -0.18205 0.927725 -0.81485 1.118375 -1.898625 0.15605 -0.9103 0 -1.4349 -0.46815 -1.573525 -0.459575 -0.138625 -1.03595 -0.20365 -1.729575 -0.195075Z" stroke-width="0.25"></path>
</svg>